<svg width="80" height="80" viewBox="0 0 277 210" fill="none" xmlns="http://www.w3.org/2000/svg">
<path fill-rule="evenodd" clip-rule="evenodd" d="M132.688 6.21472C134.365 5.27167 136.412 5.27167 138.089 6.21472L191.455 36.2326C193.19 37.208 194.263 39.043 194.263 41.0327V100.801C194.263 102.79 193.19 104.625 191.455 105.601L138.089 135.619C136.412 136.562 134.365 136.562 132.688 135.619L79.3219 105.601C77.5876 104.625 76.5144 102.79 76.5144 100.801V41.0327C76.5144 39.043 77.5876 37.208 79.3219 36.2326L132.688 6.21472ZM190.465 43.1583C190.465 41.1686 189.391 39.3336 187.657 38.3582L138.089 10.4768C136.412 9.53377 134.365 9.53377 132.688 10.4768L83.1202 38.3582C81.386 39.3336 80.3128 41.1686 80.3128 43.1583V98.6749C80.3128 100.665 81.386 102.5 83.1202 103.475L132.688 131.356C134.365 132.299 136.412 132.299 138.089 131.356L187.657 103.475C189.391 102.5 190.465 100.665 190.465 98.6749V43.1583Z" fill="black"/>
<path fill-rule="evenodd" clip-rule="evenodd" d="M140.789 1.41458L194.156 31.4324C197.624 33.3834 199.77 37.0534 199.77 41.0327V100.801C199.77 104.78 197.624 108.45 194.156 110.401L140.789 140.419C137.436 142.305 133.341 142.305 129.988 140.419L76.6217 110.401C73.1533 108.45 71.0068 104.78 71.0068 100.801V41.0327C71.0068 37.0533 73.1533 33.3834 76.6217 31.4324L129.988 1.41458C133.341 -0.471526 137.436 -0.471525 140.789 1.41458ZM138.089 6.21472C136.412 5.27167 134.365 5.27167 132.688 6.21472L79.3219 36.2326C77.5876 37.208 76.5144 39.043 76.5144 41.0327V100.801C76.5144 102.79 77.5876 104.625 79.3219 105.601L132.688 135.619C134.365 136.562 136.412 136.562 138.089 135.619L191.455 105.601C193.19 104.625 194.263 102.79 194.263 100.801V41.0327C194.263 39.043 193.19 37.208 191.455 36.2326L138.089 6.21472Z" fill="black"/>
<path d="M134.039 9.71798C134.877 9.24645 135.901 9.24645 136.739 9.71798L189.061 39.1483C189.928 39.636 190.465 40.5535 190.465 41.5484V100.286C190.465 101.281 189.928 102.198 189.061 102.686L136.739 132.116C135.901 132.588 134.877 132.588 134.039 132.116L81.7167 102.686C80.8496 102.198 80.313 101.281 80.313 100.286V41.5484C80.313 40.5535 80.8496 39.636 81.7167 39.1483L134.039 9.71798Z" fill="#ABEB69"/>
<path fill-rule="evenodd" clip-rule="evenodd" d="M139.439 4.91784L191.761 34.3482C194.363 35.8114 195.972 38.5638 195.972 41.5484V100.286C195.972 103.27 194.363 106.023 191.761 107.486L139.439 136.916C136.924 138.331 133.854 138.331 131.339 136.916L79.0166 107.486C76.4152 106.023 74.8054 103.27 74.8054 100.286V41.5484C74.8054 38.5639 76.4152 35.8114 79.0166 34.3482L131.339 4.91784C133.854 3.50326 136.924 3.50326 139.439 4.91784ZM136.739 9.71798C135.901 9.24645 134.877 9.24645 134.039 9.71798L81.7167 39.1483C80.8496 39.636 80.313 40.5535 80.313 41.5484V100.286C80.313 101.281 80.8496 102.198 81.7167 102.686L134.039 132.116C134.877 132.588 135.901 132.588 136.739 132.116L189.061 102.686C189.928 102.198 190.465 101.281 190.465 100.286V41.5484C190.465 40.5535 189.928 39.636 189.061 39.1483L136.739 9.71798Z" fill="white"/>
<path d="M134.039 9.71798C134.877 9.24645 135.901 9.24645 136.739 9.71798L189.061 39.1483C189.928 39.636 190.465 40.5535 190.465 41.5484V100.286C190.465 101.281 189.928 102.198 189.061 102.686L136.739 132.116C135.901 132.588 134.877 132.588 134.039 132.116L81.7167 102.686C80.8496 102.198 80.313 101.281 80.313 100.286V41.5484C80.313 40.5535 80.8496 39.636 81.7167 39.1483L134.039 9.71798Z" fill="#CEF1F8"/>
<path d="M135.389 48.7552L190.465 79.7345L135.389 110.714L80.313 79.7345L135.389 48.7552Z" fill="#286D34"/>
<path d="M135.389 48.7552L142.606 52.812L87.5298 83.7913L80.313 79.7345L135.389 48.7552Z" fill="#ABEB69"/>
<path d="M147.163 55.3931L154.38 59.4499L99.3043 90.4292L92.0874 86.3724L147.163 55.3931Z" fill="#ABEB69"/>
<path d="M158.939 62.0317L166.156 66.0885L111.08 97.0678L103.863 93.011L158.939 62.0317Z" fill="#ABEB69"/>
<path d="M170.713 68.6702L177.93 72.7271L122.854 103.706L115.637 99.6495L170.713 68.6702Z" fill="#ABEB69"/>
<path d="M183.248 75.6776L190.465 79.7345L135.389 110.714L128.172 106.657L183.248 75.6776Z" fill="#ABEB69"/>
<path d="M80.313 87.9957L135.389 118.975V132.875L80.313 101.896V87.9957Z" fill="#542E15"/>
<path d="M190.465 87.9957L135.389 118.975V132.875L190.465 101.896V87.9957Z" fill="#542E15"/>
<path d="M80.313 79.7345L135.389 110.714V118.975L80.313 87.9957V79.7345Z" fill="#286D34"/>
<path d="M190.465 79.7345L135.389 110.714V118.975L190.465 87.9957V79.7345Z" fill="#286D34"/>
<path fill-rule="evenodd" clip-rule="evenodd" d="M135.389 7.37874L193.273 39.9378L135.389 72.4968L77.5045 39.9378L135.389 7.37874ZM135.389 8.95847L190.465 39.9378L135.389 70.917L80.313 39.9378L135.389 8.95847Z" fill="white"/>
<path fill-rule="evenodd" clip-rule="evenodd" d="M136.766 70.1111V135.229L78.9361 102.701V37.5829L136.766 70.1111ZM80.313 39.9378L80.313 101.896L135.389 132.875V70.917L80.313 39.9378Z" fill="white"/>
<path fill-rule="evenodd" clip-rule="evenodd" d="M134.012 70.1111V135.229L191.842 102.701V37.5829L134.012 70.1111ZM190.465 39.9378V101.896L135.389 132.875V70.917L190.465 39.9378Z" fill="white"/>
</svg>
